<?xml version="1.0" encoding="UTF-8" standalone="no"?>
<svg
   width="225"
   height="380"
   viewBox="0 0 225 380"
   version="1.1"
   id="svg26"
   sodipodi:docname="SubGate8.svg"
   inkscape:version="1.4.3 (0d15f75, 2025-12-25)"
   xml:space="preserve"
   xmlns:inkscape="http://www.inkscape.org/namespaces/inkscape"
   xmlns:sodipodi="http://sodipodi.sourceforge.net/DTD/sodipodi-0.dtd"
   xmlns="http://www.w3.org/2000/svg"
   xmlns:svg="http://www.w3.org/2000/svg"><defs
     id="defs26" /><sodipodi:namedview
     id="namedview26"
     pagecolor="#ffffff"
     bordercolor="#000000"
     borderopacity="0.25"
     inkscape:showpageshadow="2"
     inkscape:pageopacity="0.0"
     inkscape:pagecheckerboard="0"
     inkscape:deskcolor="#d1d1d1"
     inkscape:zoom="6.006686"
     inkscape:cx="110.95969"
     inkscape:cy="153.07942"
     inkscape:window-width="1920"
     inkscape:window-height="1009"
     inkscape:window-x="-8"
     inkscape:window-y="-8"
     inkscape:window-maximized="1"
     inkscape:current-layer="svg26" /><!-- Panel background --><path
     id="rect1"
     style="fill:#2a2a2a"
     d="M 0,0 H 225 V 380 H 0 Z" /><!-- Panel border --><path
     id="rect2"
     style="fill:none;stroke:#1a1a1a"
     d="m 0.5,0.5 h 224 v 379 H 0.5 Z" /><!-- Title --><path
     d="m 80.330078,18.739258 1.96875,-0.191406 q 0.177734,0.99121 0.717774,1.456054 0.546875,0.464844 1.469726,0.464844 0.977539,0 1.469727,-0.410156 0.499023,-0.416992 0.499023,-0.970703 0,-0.355469 -0.211914,-0.601563 -0.205078,-0.25293 -0.724609,-0.4375 -0.355469,-0.123047 -1.620118,-0.4375 -1.626953,-0.40332 -2.283203,-0.991211 -0.922851,-0.827148 -0.922851,-2.016601 0,-0.765625 0.430664,-1.428711 0.4375,-0.669922 1.250976,-1.018555 0.820313,-0.348633 1.975586,-0.348633 1.886719,0 2.836914,0.827149 0.957032,0.827148 1.004883,2.208007 l -2.023437,0.08887 q -0.129883,-0.772461 -0.560547,-1.107422 -0.423828,-0.341797 -1.27832,-0.341797 -0.881836,0 -1.38086,0.362305 -0.321289,0.232421 -0.321289,0.62207 0,0.355469 0.300781,0.608398 0.382813,0.321289 1.859375,0.669922 1.476563,0.348633 2.180664,0.72461 0.710938,0.36914 1.107422,1.018554 0.403321,0.642578 0.403321,1.592774 0,0.861328 -0.478516,1.613281 -0.478516,0.751953 -1.353516,1.121094 -0.875,0.362304 -2.180664,0.362304 -1.90039,0 -2.918945,-0.875 -1.018555,-0.881836 -1.216797,-2.563476 z M 94.945312,22 v -1.086914 q -0.396484,0.581055 -1.045898,0.916016 -0.642578,0.33496 -1.360352,0.33496 -0.731445,0 -1.3125,-0.321289 -0.581054,-0.321289 -0.84082,-0.902343 -0.259765,-0.581055 -0.259765,-1.606446 v -4.59375 h 1.920898 v 3.335938 q 0,1.53125 0.102539,1.879883 0.109375,0.341797 0.389648,0.546875 0.280274,0.198242 0.710938,0.198242 0.492187,0 0.881836,-0.266602 0.389648,-0.273437 0.533203,-0.669922 0.143555,-0.40332 0.143555,-1.961914 v -3.0625 h 1.920898 V 22 Z m 3.691407,0 V 11.978516 h 1.920901 v 3.609375 q 0.88867,-1.011719 2.10547,-1.011719 1.32617,0 2.19433,0.963867 0.86817,0.957031 0.86817,2.754883 0,1.859375 -0.88868,2.864258 -0.88183,1.004882 -2.14648,1.004882 -0.62207,0 -1.23047,-0.307617 -0.60156,-0.314453 -1.03906,-0.922851 V 22 Z m 1.907231,-3.787109 q 0,1.127929 0.35546,1.667968 0.49903,0.765625 1.32618,0.765625 0.63574,0 1.08007,-0.540039 0.45118,-0.546875 0.45118,-1.71582 0,-1.244141 -0.45118,-1.791016 -0.45117,-0.553711 -1.15527,-0.553711 -0.69043,0 -1.14844,0.540039 -0.458,0.533204 -0.458,1.626954 z m 11.40234,0.102539 v -1.688477 h 4.36133 v 3.992188 q -0.63574,0.615234 -1.84571,1.086914 -1.20312,0.464843 -2.44043,0.464843 -1.57226,0 -2.74121,-0.65625 -1.16894,-0.663086 -1.75683,-1.886718 -0.58789,-1.230469 -0.58789,-2.672852 0,-1.56543 0.65625,-2.782226 0.65625,-1.216797 1.9209,-1.866211 0.96386,-0.499024 2.39941,-0.499024 1.86621,0 2.91211,0.786133 1.05273,0.779297 1.35351,2.160156 l -2.00976,0.375977 q -0.21192,-0.738281 -0.79981,-1.16211 -0.58105,-0.430664 -1.45605,-0.430664 -1.32617,0 -2.11231,0.840821 -0.77929,0.84082 -0.77929,2.495117 0,1.78418 0.79297,2.679687 0.79297,0.888672 2.07812,0.888672 0.63574,0 1.27149,-0.246094 0.64257,-0.252929 1.10058,-0.608398 V 18.31543 Z m 7.64941,-1.360352 -1.74316,-0.314453 q 0.29394,-1.052734 1.01172,-1.558594 0.71777,-0.505859 2.13281,-0.505859 1.28516,0 1.91406,0.307617 0.62891,0.300781 0.88184,0.772461 0.25976,0.464844 0.25976,1.71582 l -0.0205,2.242188 q 0,0.957031 0.0889,1.415039 0.0957,0.451172 0.34864,0.970703 h -1.90039 q -0.0752,-0.191406 -0.18457,-0.567383 -0.0479,-0.170898 -0.0684,-0.225586 -0.49219,0.478516 -1.05274,0.717774 -0.56054,0.239257 -1.19629,0.239257 -1.12109,0 -1.7705,-0.608398 -0.64258,-0.608398 -0.64258,-1.538086 0,-0.615234 0.29394,-1.09375 0.29395,-0.485351 0.82031,-0.738281 0.53321,-0.259766 1.53125,-0.451172 1.34668,-0.25293 1.86622,-0.47168 v -0.191406 q 0,-0.553711 -0.27344,-0.786133 -0.27344,-0.239258 -1.03223,-0.239258 -0.51269,0 -0.7998,0.205079 -0.28711,0.198242 -0.46485,0.704101 z m 2.57032,1.558594 q -0.36914,0.123047 -1.16895,0.293945 -0.7998,0.170899 -1.0459,0.334961 -0.37597,0.266602 -0.37597,0.676758 0,0.40332 0.30078,0.697266 0.30078,0.293945 0.76562,0.293945 0.51953,0 0.99121,-0.341797 0.34864,-0.259766 0.45801,-0.635742 0.0752,-0.246094 0.0752,-0.936524 z m 7.10937,-3.773438 v 1.53125 h -1.3125 v 2.925782 q 0,0.888671 0.0342,1.039062 0.041,0.143555 0.1709,0.239258 0.13672,0.0957 0.32812,0.0957 0.26661,0 0.77246,-0.18457 l 0.16407,1.490234 q -0.66992,0.287109 -1.51758,0.287109 -0.51953,0 -0.93652,-0.170898 -0.417,-0.177734 -0.61524,-0.451172 -0.1914,-0.280273 -0.2666,-0.751953 -0.0615,-0.334961 -0.0615,-1.353516 v -3.165039 h -0.88184 v -1.53125 h 0.88184 v -1.442382 l 1.92773,-1.121094 v 2.563476 z m 5.53711,4.949219 1.91406,0.321289 q -0.36914,1.052735 -1.16894,1.606445 -0.79297,0.546875 -1.98926,0.546875 -1.89356,0 -2.80274,-1.237304 -0.71777,-0.991211 -0.71777,-2.501953 0,-1.804688 0.94336,-2.823242 0.94336,-1.025391 2.38574,-1.025391 1.62012,0 2.55664,1.073242 0.93653,1.066406 0.89551,3.274414 h -4.8125 q 0.0205,0.854492 0.46485,1.333008 0.44433,0.47168 1.10742,0.47168 0.45117,0 0.75879,-0.246094 0.30761,-0.246094 0.46484,-0.792969 z m 0.10937,-1.941406 q -0.0205,-0.833985 -0.43066,-1.264649 -0.41016,-0.4375 -0.99805,-0.4375 -0.6289,0 -1.03906,0.458008 -0.41015,0.458008 -0.40332,1.244141 z m 4.70997,-1.155274 q -0.74512,-0.314453 -1.08692,-0.861328 -0.33496,-0.553711 -0.33496,-1.209961 0,-1.121093 0.7793,-1.852539 0.78613,-0.731445 2.22851,-0.731445 1.42871,0 2.21485,0.731445 0.79297,0.731446 0.79297,1.852539 0,0.697266 -0.36231,1.244141 -0.3623,0.540039 -1.01855,0.827148 0.83398,0.334961 1.26464,0.977539 0.4375,0.642579 0.4375,1.483399 0,1.387695 -0.88867,2.255859 -0.88183,0.868164 -2.35156,0.868164 -1.36719,0 -2.27637,-0.717773 -1.07324,-0.847656 -1.07324,-2.324219 0,-0.813476 0.40332,-1.490234 0.40332,-0.683594 1.27149,-1.052735 z m 0.39648,-1.93457 q 0,0.574219 0.32129,0.895508 0.32812,0.321289 0.86816,0.321289 0.54688,0 0.875,-0.321289 0.32813,-0.328125 0.32813,-0.902344 0,-0.540039 -0.32813,-0.861328 -0.32129,-0.328125 -0.85449,-0.328125 -0.55371,0 -0.88183,0.328125 -0.32813,0.328125 -0.32813,0.868164 z m -0.17773,4.292969 q 0,0.792969 0.40332,1.237305 0.41015,0.444335 1.01855,0.444335 0.59473,0 0.98438,-0.423828 0.38964,-0.430664 0.38964,-1.237304 0,-0.704102 -0.39648,-1.12793 -0.39648,-0.430664 -1.00488,-0.430664 -0.7041,0 -1.05274,0.485351 -0.34179,0.485352 -0.34179,1.052735 z"
     id="text2"
     style="font-weight:bold;font-size:14px;font-family:Arial, sans-serif;text-anchor:middle;fill:#ffffff"
     aria-label="SubGate8" /><!-- Step number labels (1-8) --><path
     d="m 24.755859,38 h -0.703125 v -4.480469 q -0.253906,0.242188 -0.667968,0.484375 -0.410157,0.242188 -0.738282,0.363281 V 33.6875 q 0.589844,-0.277344 1.03125,-0.671875 0.441407,-0.394531 0.625,-0.765625 h 0.453125 z"
     id="text3"
     style="font-size:8px;font-family:Arial, sans-serif;text-anchor:middle;fill:#888888"
     aria-label="1" /><path
     d="M 50.802734,37.324219 V 38 h -3.785156 q -0.0078,-0.253906 0.08203,-0.488281 Q 47.244141,37.125 47.560547,36.75 q 0.320312,-0.375 0.921875,-0.867188 0.933594,-0.765625 1.261719,-1.210937 0.328125,-0.449219 0.328125,-0.847656 0,-0.417969 -0.300782,-0.703125 -0.296875,-0.289063 -0.777343,-0.289063 -0.507813,0 -0.8125,0.304688 -0.304688,0.304687 -0.308594,0.84375 l -0.722656,-0.07422 q 0.07422,-0.808594 0.558593,-1.230469 Q 48.193359,32.25 49.009766,32.25 q 0.824218,0 1.304687,0.457031 0.480469,0.457031 0.480469,1.132813 0,0.34375 -0.140625,0.675781 -0.140625,0.332031 -0.46875,0.699219 -0.324219,0.367187 -1.082031,1.007812 -0.632813,0.53125 -0.8125,0.722656 -0.179688,0.1875 -0.296875,0.378907 z"
     id="text4"
     style="font-size:8px;font-family:Arial, sans-serif;text-anchor:middle;fill:#888888"
     aria-label="2" /><path
     d="m 72.111328,36.488281 0.703125,-0.09375 q 0.121094,0.597656 0.410156,0.863281 0.292969,0.261719 0.710938,0.261719 0.496094,0 0.835937,-0.34375 0.34375,-0.34375 0.34375,-0.851562 0,-0.484375 -0.316406,-0.796875 -0.316406,-0.316407 -0.804687,-0.316407 -0.199219,0 -0.496094,0.07813 l 0.07813,-0.617187 q 0.07031,0.0078 0.113281,0.0078 0.449219,0 0.808594,-0.234375 0.359375,-0.234375 0.359375,-0.722656 0,-0.386719 -0.261719,-0.640625 -0.261719,-0.253906 -0.675781,-0.253906 -0.410156,0 -0.683594,0.257812 -0.273437,0.257813 -0.351562,0.773438 l -0.703125,-0.125 q 0.128906,-0.707031 0.585937,-1.09375 Q 73.224609,32.25 73.904297,32.25 q 0.46875,0 0.863281,0.203125 0.394531,0.199219 0.601563,0.546875 0.210937,0.347656 0.210937,0.738281 0,0.371094 -0.199219,0.675781 -0.199218,0.304688 -0.589843,0.484375 0.507812,0.117188 0.789062,0.488282 0.28125,0.367187 0.28125,0.921875 0,0.75 -0.546875,1.273437 -0.546875,0.519531 -1.382812,0.519531 -0.753907,0 -1.253907,-0.449218 -0.496093,-0.449219 -0.566406,-1.164063 z"
     id="text5"
     style="font-size:8px;font-family:Arial, sans-serif;text-anchor:middle;fill:#888888"
     aria-label="3" /><path
     d="m 99.361328,38 v -1.371094 h -2.484375 v -0.644531 l 2.613281,-3.710938 h 0.574216 v 3.710938 h 0.77344 v 0.644531 h -0.77344 V 38 Z m 0,-2.015625 v -2.582031 l -1.792969,2.582031 z"
     id="text6"
     style="font-size:8px;font-family:Arial, sans-serif;text-anchor:middle;fill:#888888"
     aria-label="4" /><path
     d="m 122.10742,36.5 0.73828,-0.0625 q 0.082,0.539062 0.37891,0.8125 0.30078,0.269531 0.72266,0.269531 0.50781,0 0.85937,-0.382812 0.35156,-0.382813 0.35156,-1.015625 0,-0.601563 -0.33984,-0.949219 -0.33594,-0.347656 -0.88281,-0.347656 -0.33985,0 -0.61328,0.15625 -0.27344,0.152343 -0.42969,0.398437 l -0.66016,-0.08594 0.55469,-2.941407 h 2.84766 v 0.671875 h -2.28516 l -0.30859,1.539063 q 0.51562,-0.359375 1.08203,-0.359375 0.75,0 1.26562,0.519531 0.51563,0.519531 0.51563,1.335938 0,0.777343 -0.45313,1.34375 -0.55078,0.695312 -1.5039,0.695312 -0.78125,0 -1.27735,-0.4375 -0.49219,-0.4375 -0.5625,-1.160156 z"
     id="text7"
     style="font-size:8px;font-family:Arial, sans-serif;text-anchor:middle;fill:#888888"
     aria-label="5" /><path
     d="m 150.75586,33.675781 -0.69922,0.05469 q -0.0937,-0.414063 -0.26562,-0.601563 -0.28516,-0.300781 -0.70313,-0.300781 -0.33594,0 -0.58984,0.1875 -0.33203,0.242187 -0.52344,0.707031 -0.19141,0.464844 -0.19922,1.324219 0.25391,-0.386719 0.62109,-0.574219 0.36719,-0.1875 0.76954,-0.1875 0.70312,0 1.19531,0.519531 0.49609,0.515625 0.49609,1.335938 0,0.539062 -0.23437,1.003906 -0.23047,0.460938 -0.63672,0.707031 -0.40625,0.246094 -0.92188,0.246094 -0.8789,0 -1.43359,-0.644531 -0.55469,-0.648438 -0.55469,-2.132813 0,-1.660156 0.61328,-2.414062 0.53516,-0.65625 1.44141,-0.65625 0.67578,0 1.10547,0.378906 0.43359,0.378906 0.51953,1.046875 z m -2.87109,2.46875 q 0,0.363281 0.15234,0.695313 0.15625,0.332031 0.43359,0.507812 0.27735,0.171875 0.58203,0.171875 0.44532,0 0.76563,-0.359375 0.32031,-0.359375 0.32031,-0.976562 0,-0.59375 -0.3164,-0.933594 -0.31641,-0.34375 -0.79688,-0.34375 -0.47656,0 -0.80859,0.34375 -0.33203,0.339844 -0.33203,0.894531 z"
     id="text8"
     style="font-size:8px;font-family:Arial, sans-serif;text-anchor:middle;fill:#888888"
     aria-label="6" /><path
     d="m 172.1543,33.023437 v -0.675781 h 3.70703 v 0.546875 q -0.54688,0.582031 -1.08594,1.546875 -0.53516,0.964844 -0.82812,1.984375 -0.21094,0.71875 -0.26954,1.574219 h -0.72265 q 0.0117,-0.675781 0.26562,-1.632813 0.25391,-0.957031 0.72657,-1.84375 0.47656,-0.890625 1.01171,-1.5 z"
     id="text9"
     style="font-size:8px;font-family:Arial, sans-serif;text-anchor:middle;fill:#888888"
     aria-label="7" /><path
     d="m 198.18945,34.894531 q -0.4375,-0.160156 -0.64843,-0.457031 -0.21094,-0.296875 -0.21094,-0.710938 0,-0.625 0.44922,-1.050781 0.44922,-0.425781 1.19531,-0.425781 0.75,0 1.20703,0.4375 0.45703,0.433594 0.45703,1.058594 0,0.398437 -0.21094,0.695312 -0.20703,0.292969 -0.63281,0.453125 0.52735,0.171875 0.80078,0.554688 0.27735,0.382812 0.27735,0.914062 0,0.734375 -0.51953,1.234375 -0.51954,0.5 -1.36719,0.5 -0.84766,0 -1.36719,-0.5 -0.51953,-0.503906 -0.51953,-1.253906 0,-0.558594 0.28125,-0.933594 0.28516,-0.378906 0.80859,-0.515625 z m -0.14062,-1.191406 q 0,0.40625 0.26172,0.664062 0.26172,0.257813 0.67968,0.257813 0.40625,0 0.66407,-0.253906 0.26172,-0.257813 0.26172,-0.628907 0,-0.386718 -0.26954,-0.648437 -0.26562,-0.265625 -0.66406,-0.265625 -0.40234,0 -0.66797,0.257812 -0.26562,0.257813 -0.26562,0.617188 z m -0.22656,2.644531 q 0,0.300781 0.14062,0.582031 0.14453,0.28125 0.42578,0.4375 0.28125,0.152344 0.60547,0.152344 0.50391,0 0.83203,-0.324219 0.32813,-0.324218 0.32813,-0.824218 0,-0.507813 -0.33985,-0.839844 -0.33593,-0.332031 -0.84375,-0.332031 -0.49609,0 -0.82422,0.328125 -0.32421,0.328125 -0.32421,0.820312 z"
     id="text10"
     style="font-size:8px;font-family:Arial, sans-serif;text-anchor:middle;fill:#888888"
     aria-label="8" /><!-- Subdivision labels --><path
     d="M 6.8984375,58 H 6.3710937 V 54.639648 Q 6.1806641,54.821289 5.8701172,55.00293 5.5625,55.18457 5.3164062,55.275391 V 54.765625 Q 5.7587891,54.557617 6.0898437,54.261719 6.4208984,53.96582 6.5585937,53.6875 h 0.3398438 z"
     id="text11"
     style="font-size:6px;font-family:Arial, sans-serif;text-anchor:end;fill:#666666"
     aria-label="1" /><path
     d="M 7.6835937,77.493164 V 78 H 4.8447266 Q 4.8388672,77.80957 4.90625,77.633789 5.0146484,77.34375 5.2519531,77.0625 q 0.2402344,-0.28125 0.6914063,-0.650391 0.7001953,-0.574218 0.946289,-0.908203 0.2460938,-0.336914 0.2460938,-0.635742 0,-0.313477 -0.225586,-0.527344 Q 6.6875,74.124023 6.3271484,74.124023 q -0.3808593,0 -0.609375,0.228516 -0.2285156,0.228516 -0.2314453,0.632813 L 4.9443359,74.929687 Q 5,74.323242 5.3632812,74.006836 5.7265625,73.6875 6.3388672,73.6875 q 0.618164,0 0.9785156,0.342773 0.3603516,0.342774 0.3603516,0.84961 0,0.257812 -0.1054688,0.506836 -0.1054687,0.249023 -0.3515625,0.524414 -0.243164,0.27539 -0.8115234,0.755859 -0.4746094,0.398438 -0.609375,0.541992 -0.1347656,0.140625 -0.2226563,0.28418 z"
     id="text12"
     style="font-size:6px;font-family:Arial, sans-serif;text-anchor:end;fill:#666666"
     aria-label="2" /><path
     d="m 4.9150391,96.866211 0.5273437,-0.07031 q 0.09082,0.448243 0.3076172,0.647461 0.2197266,0.196289 0.5332031,0.196289 0.3720703,0 0.6269531,-0.257812 0.2578125,-0.257813 0.2578125,-0.638672 0,-0.363281 -0.2373046,-0.597656 -0.2373047,-0.237305 -0.6035157,-0.237305 -0.149414,0 -0.3720703,0.05859 l 0.058594,-0.462891 q 0.052734,0.0059 0.084961,0.0059 0.3369141,0 0.6064453,-0.175782 0.2695313,-0.175781 0.2695313,-0.541992 0,-0.290039 -0.1962891,-0.480469 -0.1962891,-0.190429 -0.5068359,-0.190429 -0.3076172,0 -0.5126953,0.193359 -0.2050782,0.193359 -0.2636719,0.580078 L 4.9677734,94.800781 Q 5.0644531,94.270508 5.4072266,93.980469 5.75,93.6875 6.2597656,93.6875 q 0.3515625,0 0.647461,0.152344 0.2958984,0.149414 0.4511718,0.410156 0.1582032,0.260742 0.1582032,0.553711 0,0.27832 -0.1494141,0.506836 -0.1494141,0.228515 -0.4423828,0.363281 0.3808594,0.08789 0.5917969,0.366211 0.2109375,0.275391 0.2109375,0.691406 0,0.5625 -0.4101563,0.955078 -0.4101562,0.389649 -1.0371094,0.389649 -0.5654297,0 -0.9404297,-0.336914 -0.3720703,-0.336914 -0.4248046,-0.873047 z"
     id="text13"
     style="font-size:6px;font-family:Arial, sans-serif;text-anchor:end;fill:#666666"
     aria-label="3" /><path
     d="m 6.6025391,118 v -1.02832 H 4.7392578 v -0.4834 l 1.9599609,-2.7832 h 0.4306641 v 2.7832 h 0.5800781 v 0.4834 H 7.1298828 V 118 Z m 0,-1.51172 v -1.93652 l -1.3447266,1.93652 z"
     id="text14"
     style="font-size:6px;font-family:Arial, sans-serif;text-anchor:end;fill:#666666"
     aria-label="4" /><!-- Grid background area --><path
     id="rect14"
     style="fill:#222222;stroke:#333333;stroke-width:0.51574"
     d="M 15.007636,40.124351 H 210.99236 c 1.66188,0 2.99976,1.423674 2.99976,3.192096 v 87.250623 c 0,1.76842 -1.33788,3.19209 -2.99976,3.19209 H 15.007636 c -1.66187,0 -2.999766,-1.42367 -2.999766,-3.19209 V 43.316447 c 0,-1.768422 1.337896,-3.192096 2.999766,-3.192096 z" /><!-- Control section labels --><path
     d="m 38.615234,154.03467 v -0.58789 l 2.122559,-0.003 v 1.85937 q -0.48877,0.38965 -1.008301,0.58789 -0.519531,0.19483 -1.066406,0.19483 -0.738281,0 -1.343262,-0.31445 -0.601562,-0.31788 -0.909179,-0.91602 -0.307618,-0.59814 -0.307618,-1.33643 0,-0.73144 0.3042,-1.36376 0.307617,-0.63575 0.881835,-0.94336 0.574219,-0.30762 1.322754,-0.30762 0.543457,0 0.980957,0.17773 0.440918,0.17432 0.69043,0.48877 0.249512,0.31446 0.379395,0.82031 l -0.598145,0.16407 q -0.112793,-0.38282 -0.280273,-0.60157 -0.167481,-0.21875 -0.478516,-0.34863 -0.311035,-0.1333 -0.69043,-0.1333 -0.454589,0 -0.786132,0.14014 -0.331543,0.13672 -0.536622,0.3623 -0.20166,0.22559 -0.314453,0.49561 -0.191406,0.46484 -0.191406,1.0083 0,0.66992 0.229004,1.12109 0.232422,0.45117 0.67334,0.66992 0.440918,0.21875 0.936523,0.21875 0.430664,0 0.840821,-0.16406 0.410156,-0.16748 0.62207,-0.35547 v -0.9331 z M 41.165039,156 l 1.924316,-5.01074 h 0.714356 L 45.854492,156 h -0.755371 l -0.584473,-1.51758 H 42.419434 L 41.869141,156 Z m 1.445801,-2.05762 h 1.69873 l -0.522949,-1.38769 q -0.239258,-0.63233 -0.355469,-1.03907 -0.0957,0.48194 -0.270019,0.95704 z M 47.139648,156 v -4.41943 H 45.48877 v -0.59131 h 3.971679 v 0.59131 H 47.802734 V 156 Z m 3.014649,0 v -5.01074 h 3.623047 v 0.59131 h -2.959961 v 1.53466 h 2.771972 v 0.58789 h -2.771972 v 1.70557 h 3.076172 V 156 Z"
     id="text15"
     style="font-size:7px;font-family:Arial, sans-serif;text-anchor:middle;fill:#888888"
     aria-label="GATE" /><path
     d="m 31.316162,163 v -5.01074 h 0.663086 v 4.41943 h 2.467773 V 163 Z m 3.934082,0 v -5.01074 h 3.623047 v 0.59131 H 35.91333 v 1.53466 h 2.771973 v 0.58789 H 35.91333 v 1.70557 h 3.076172 V 163 Z m 4.648438,0 v -5.01074 h 0.680175 l 2.631836,3.93408 v -3.93408 h 0.635743 V 163 H 43.16626 l -2.631836,-3.9375 V 163 Z m 7.406738,-1.96533 v -0.58789 l 2.122559,-0.003 v 1.85937 q -0.48877,0.38965 -1.008301,0.58789 -0.519532,0.19483 -1.066407,0.19483 -0.738281,0 -1.343261,-0.31445 -0.601563,-0.31788 -0.90918,-0.91602 -0.307617,-0.59814 -0.307617,-1.33643 0,-0.73144 0.304199,-1.36376 0.307617,-0.63575 0.881836,-0.94336 0.574219,-0.30762 1.322754,-0.30762 0.543457,0 0.980957,0.17773 0.440918,0.17432 0.69043,0.48877 0.249511,0.31446 0.379394,0.82031 l -0.598144,0.16407 q -0.112793,-0.38282 -0.280274,-0.60157 -0.16748,-0.21875 -0.478515,-0.34863 -0.311036,-0.1333 -0.69043,-0.1333 -0.45459,0 -0.786133,0.14014 -0.331543,0.13672 -0.536621,0.3623 -0.20166,0.22559 -0.314453,0.49561 -0.191406,0.46484 -0.191406,1.0083 0,0.66992 0.229004,1.12109 0.232421,0.45117 0.673339,0.66992 0.440918,0.21875 0.936524,0.21875 0.430664,0 0.84082,-0.16406 0.410156,-0.16748 0.62207,-0.35547 v -0.9331 z M 51.68042,163 v -4.41943 h -1.650879 v -0.59131 h 3.97168 v 0.59131 H 52.343506 V 163 Z m 3.021484,0 v -5.01074 h 0.663086 v 2.05761 h 2.604492 v -2.05761 h 0.663086 V 163 h -0.663086 v -2.36182 H 55.36499 V 163 Z"
     id="text16"
     style="font-size:7px;font-family:Arial, sans-serif;text-anchor:middle;fill:#888888"
     aria-label="LENGTH" /><path
     d="m 93.454102,154.39014 0.625488,-0.0547 q 0.04443,0.37598 0.205078,0.61865 0.164062,0.23926 0.505859,0.38965 0.341797,0.14697 0.769043,0.14697 0.379395,0 0.669922,-0.11279 0.290528,-0.11279 0.430664,-0.30762 0.143555,-0.19824 0.143555,-0.43066 0,-0.23584 -0.136719,-0.41016 -0.136719,-0.17773 -0.451172,-0.29736 -0.20166,-0.0786 -0.89209,-0.24268 -0.690429,-0.16748 -0.967285,-0.31445 -0.358886,-0.18799 -0.536621,-0.46484 -0.174316,-0.28028 -0.174316,-0.62549 0,-0.3794 0.215332,-0.70752 0.215332,-0.33154 0.628906,-0.50244 0.413574,-0.1709 0.919434,-0.1709 0.557129,0 0.980957,0.18115 0.427246,0.17774 0.65625,0.52637 0.229004,0.34863 0.246093,0.78955 l -0.635742,0.0479 q -0.05127,-0.4751 -0.348633,-0.71777 -0.293945,-0.24268 -0.871582,-0.24268 -0.601562,0 -0.878418,0.22217 -0.273437,0.21875 -0.273437,0.52978 0,0.27002 0.194824,0.44434 0.191406,0.17432 0.998047,0.35889 0.810059,0.18115 1.11084,0.31787 0.4375,0.20166 0.645996,0.51269 0.208496,0.30762 0.208496,0.71094 0,0.3999 -0.229004,0.75537 -0.229004,0.35205 -0.659668,0.55029 -0.427246,0.19483 -0.963867,0.19483 -0.680176,0 -1.141602,-0.19824 -0.458007,-0.19825 -0.721191,-0.59473 -0.259766,-0.3999 -0.273437,-0.90234 z M 99.223633,156 l -1.32959,-5.01074 h 0.680176 l 0.762207,3.28467 q 0.123047,0.51611 0.211914,1.02539 0.191406,-0.80323 0.225586,-0.92627 l 0.953614,-3.38379 h 0.7998 l 0.71778,2.53613 q 0.27002,0.94336 0.38965,1.77393 0.0957,-0.4751 0.24951,-1.09034 l 0.78613,-3.21972 h 0.6665 L 102.96289,156 h -0.63916 l -1.05615,-3.81787 q -0.1333,-0.47852 -0.15723,-0.58789 -0.0786,0.34521 -0.14697,0.58789 L 99.900391,156 Z m 5.844727,0 v -5.01074 h 0.66309 V 156 Z m 1.82519,0 v -5.01074 h 0.68018 l 2.63184,3.93408 v -3.93408 h 0.63574 V 156 h -0.68018 l -2.63183,-3.9375 V 156 Z m 7.40674,-1.96533 v -0.58789 l 2.12256,-0.003 v 1.85937 q -0.48877,0.38965 -1.0083,0.58789 -0.51953,0.19483 -1.06641,0.19483 -0.73828,0 -1.34326,-0.31445 -0.60156,-0.31788 -0.90918,-0.91602 -0.30761,-0.59814 -0.30761,-1.33643 0,-0.73144 0.3042,-1.36376 0.30761,-0.63575 0.88183,-0.94336 0.57422,-0.30762 1.32276,-0.30762 0.54345,0 0.98095,0.17773 0.44092,0.17432 0.69043,0.48877 0.24951,0.31446 0.3794,0.82031 l -0.59815,0.16407 q -0.11279,-0.38282 -0.28027,-0.60157 -0.16748,-0.21875 -0.47852,-0.34863 -0.31103,-0.1333 -0.69043,-0.1333 -0.45459,0 -0.78613,0.14014 -0.33154,0.13672 -0.53662,0.3623 -0.20166,0.22559 -0.31445,0.49561 -0.19141,0.46484 -0.19141,1.0083 0,0.66992 0.229,1.12109 0.23243,0.45117 0.67334,0.66992 0.44092,0.21875 0.93653,0.21875 0.43066,0 0.84082,-0.16406 0.41015,-0.16748 0.62207,-0.35547 v -0.9331 z"
     id="text17"
     style="font-size:7px;font-family:Arial, sans-serif;text-anchor:middle;fill:#888888"
     aria-label="SWING" /><path
     d="m 188.57472,156.47088 v -5.01074 h 2.22168 q 0.66992,0 1.01855,0.13672 0.34864,0.1333 0.55713,0.47509 0.2085,0.3418 0.2085,0.75538 0,0.5332 -0.34522,0.89892 -0.34521,0.36572 -1.0664,0.46484 0.26318,0.12647 0.3999,0.24952 0.29053,0.2666 0.55029,0.6665 l 0.87158,1.36377 h -0.83398 l -0.66309,-1.04248 q -0.29052,-0.45117 -0.47851,-0.69043 -0.18799,-0.23926 -0.33838,-0.33496 -0.14697,-0.0957 -0.30078,-0.1333 -0.11279,-0.0239 -0.36914,-0.0239 h -0.76904 v 2.22507 z m 0.66309,-2.79932 h 1.42529 q 0.45459,0 0.71094,-0.0923 0.25634,-0.0957 0.38964,-0.30078 0.1333,-0.2085 0.1333,-0.45117 0,-0.35547 -0.25976,-0.58448 -0.25635,-0.229 -0.81348,-0.229 h -1.58593 z m 7.66992,-2.21142 h 0.66308 v 2.89502 q 0,0.75537 -0.1709,1.1997 -0.17089,0.44434 -0.61865,0.72461 -0.44433,0.27686 -1.16894,0.27686 -0.7041,0 -1.15186,-0.24268 -0.44775,-0.24267 -0.63916,-0.70068 -0.1914,-0.46143 -0.1914,-1.25781 v -2.89502 h 0.66308 v 2.8916 q 0,0.65283 0.11963,0.96387 0.12305,0.30761 0.41699,0.47509 0.29737,0.16748 0.72461,0.16748 0.73145,0 1.04248,-0.33154 0.31104,-0.33154 0.31104,-1.2749 z m 1.76025,5.01074 v -5.01074 h 0.68018 l 2.63183,3.93408 v -3.93408 h 0.63574 v 5.01074 h -0.68017 l -2.63184,-3.9375 v 3.9375 z"
     id="text18"
     style="font-size:7px;font-family:Arial, sans-serif;text-anchor:middle;fill:#888888"
     aria-label="RUN" /><!-- I/O section background --><path
     id="rect18"
     style="fill:#1e1e1e;stroke:#333333;stroke-width:0.5"
     d="m 15,205 h 196 c 1.662,0 3,1.338 3,3 v 49 c 0,1.662 -1.338,3 -3,3 H 15 c -1.662,0 -3,-1.338 -3,-3 v -49 c 0,-1.662 1.338,-3 3,-3 z" /><!-- Input labels --><path
     d="m 29.19016,217.54923 0.663086,0.16748 q -0.208497,0.8169 -0.751954,1.24756 -0.540039,0.42725 -1.322753,0.42725 -0.810059,0 -1.319336,-0.32813 -0.50586,-0.33154 -0.772461,-0.95703 -0.263184,-0.62549 -0.263184,-1.34326 0,-0.78271 0.297363,-1.36377 0.300782,-0.58447 0.851075,-0.88525 0.55371,-0.3042 1.216796,-0.3042 0.751954,0 1.264649,0.38281 0.512695,0.38281 0.714355,1.07666 l -0.652832,0.15381 q -0.174316,-0.54688 -0.505859,-0.79639 -0.331543,-0.24951 -0.833984,-0.24951 -0.577637,0 -0.967286,0.27686 -0.38623,0.27685 -0.543457,0.74511 -0.157226,0.46485 -0.157226,0.96045 0,0.63916 0.18457,1.11768 0.187988,0.4751 0.581055,0.71094 0.393066,0.23584 0.851074,0.23584 0.557129,0 0.943359,-0.32129 0.386231,-0.32129 0.52295,-0.95362 z m 1.452636,1.75684 v -5.01074 h 0.663086 v 4.41943 h 2.467774 v 0.59131 z m 3.893067,0 v -5.01074 h 0.663086 v 2.48486 l 2.488281,-2.48486 h 0.898926 l -2.102051,2.03027 2.194336,2.98047 h -0.875 l -1.78418,-2.53613 -0.820312,0.7998 v 1.73633 z"
     id="text19"
     style="font-size:7px;font-family:Arial, sans-serif;text-anchor:middle;fill:#888888"
     aria-label="CLK" /><path
     d="m 60.433812,219.30607 v -5.01074 h 2.22168 q 0.669922,0 1.018554,0.13672 0.348633,0.1333 0.557129,0.47509 0.208496,0.3418 0.208496,0.75538 0,0.5332 -0.345215,0.89892 -0.345214,0.36572 -1.066406,0.46484 0.263184,0.12647 0.399903,0.24952 0.290527,0.2666 0.550293,0.6665 l 0.871582,1.36377 h -0.833985 l -0.663086,-1.04248 q -0.290527,-0.45117 -0.478515,-0.69043 -0.187989,-0.23926 -0.338379,-0.33496 -0.146973,-0.0957 -0.300782,-0.1333 -0.112792,-0.0239 -0.36914,-0.0239 h -0.769043 v 2.22507 z m 0.663086,-2.79932 h 1.425293 q 0.45459,0 0.710937,-0.0923 0.256348,-0.0957 0.389649,-0.30078 0.133301,-0.2085 0.133301,-0.45117 0,-0.35547 -0.259766,-0.58448 -0.256348,-0.229 -0.813477,-0.229 h -1.585937 z m 4.15625,1.18946 0.625488,-0.0547 q 0.04443,0.37598 0.205078,0.61865 0.164063,0.23926 0.50586,0.38965 0.341797,0.14697 0.769043,0.14697 0.379394,0 0.669922,-0.11279 0.290527,-0.11279 0.430664,-0.30762 0.143554,-0.19824 0.143554,-0.43066 0,-0.23584 -0.136718,-0.41016 -0.136719,-0.17773 -0.451172,-0.29736 -0.201661,-0.0786 -0.89209,-0.24268 -0.69043,-0.16748 -0.967285,-0.31445 -0.358887,-0.18799 -0.536621,-0.46484 -0.174317,-0.28028 -0.174317,-0.62549 0,-0.3794 0.215332,-0.70752 0.215332,-0.33154 0.628906,-0.50244 0.413575,-0.1709 0.919434,-0.1709 0.557129,0 0.980957,0.18115 0.427246,0.17774 0.65625,0.52637 0.229004,0.34863 0.246094,0.78955 l -0.635742,0.0479 q -0.05127,-0.4751 -0.348633,-0.71777 -0.293946,-0.24268 -0.871582,-0.24268 -0.601563,0 -0.878418,0.22217 -0.273438,0.21875 -0.273438,0.52978 0,0.27002 0.194825,0.44434 0.191406,0.17432 0.998046,0.35889 0.810059,0.18115 1.11084,0.31787 0.4375,0.20166 0.645996,0.51269 0.208496,0.30762 0.208496,0.71094 0,0.3999 -0.229003,0.75537 -0.229004,0.35205 -0.659668,0.55029 -0.427247,0.19483 -0.963868,0.19483 -0.680175,0 -1.141601,-0.19824 -0.458008,-0.19825 -0.721192,-0.59473 -0.259765,-0.3999 -0.273437,-0.90234 z m 6.169433,1.60986 v -4.41943 h -1.650878 v -0.59131 h 3.971679 v 0.59131 h -1.657715 v 4.41943 z"
     id="text20"
     style="font-size:7px;font-family:Arial, sans-serif;text-anchor:middle;fill:#888888"
     aria-label="RST" /><path
     d="m 94.851048,219.30607 v -5.01074 h 2.22168 q 0.669922,0 1.018555,0.13672 0.348632,0.1333 0.557129,0.47509 0.208496,0.3418 0.208496,0.75538 0,0.5332 -0.345215,0.89892 -0.345215,0.36572 -1.066406,0.46484 0.263183,0.12647 0.399902,0.24952 0.290527,0.2666 0.550293,0.6665 l 0.871582,1.36377 H 98.43308 l -0.663086,-1.04248 q -0.290528,-0.45117 -0.478516,-0.69043 -0.187988,-0.23926 -0.338379,-0.33496 -0.146973,-0.0957 -0.300781,-0.1333 -0.112793,-0.0239 -0.369141,-0.0239 h -0.769043 v 2.22507 z m 0.663086,-2.79932 h 1.425293 q 0.45459,0 0.710938,-0.0923 0.256347,-0.0957 0.389648,-0.30078 0.133301,-0.2085 0.133301,-0.45117 0,-0.35547 -0.259766,-0.58448 -0.256347,-0.229 -0.813476,-0.229 h -1.585938 z m 7.669926,-2.21142 h 0.66308 v 2.89502 q 0,0.75537 -0.1709,1.1997 -0.17089,0.44434 -0.61865,0.72461 -0.44433,0.27686 -1.16894,0.27686 -0.70411,0 -1.15186,-0.24268 -0.44775,-0.24267 -0.63916,-0.70068 -0.191406,-0.46143 -0.191406,-1.25781 v -2.89502 h 0.663086 v 2.8916 q 0,0.65283 0.11963,0.96387 0.12305,0.30761 0.41699,0.47509 0.29736,0.16748 0.72461,0.16748 0.73145,0 1.04248,-0.33154 0.31104,-0.33154 0.31104,-1.2749 z m 1.76025,5.01074 v -5.01074 h 0.68018 l 2.63183,3.93408 v -3.93408 h 0.63574 v 5.01074 h -0.68017 l -2.63184,-3.9375 v 3.9375 z"
     id="text21"
     style="font-size:7px;font-family:Arial, sans-serif;text-anchor:middle;fill:#888888"
     aria-label="RUN" /><!-- Output labels --><path
     d="m 145.49875,217.34074 v -0.58789 l 2.12256,-0.003 v 1.85937 q -0.48877,0.38965 -1.0083,0.58789 -0.51953,0.19483 -1.0664,0.19483 -0.73829,0 -1.34327,-0.31445 -0.60156,-0.31788 -0.90918,-0.91602 -0.30761,-0.59814 -0.30761,-1.33643 0,-0.73144 0.3042,-1.36376 0.30761,-0.63575 0.88183,-0.94336 0.57422,-0.30762 1.32276,-0.30762 0.54345,0 0.98095,0.17773 0.44092,0.17432 0.69043,0.48877 0.24951,0.31446 0.3794,0.82031 l -0.59815,0.16407 q -0.11279,-0.38282 -0.28027,-0.60157 -0.16748,-0.21875 -0.47852,-0.34863 -0.31103,-0.1333 -0.69043,-0.1333 -0.45459,0 -0.78613,0.14014 -0.33154,0.13672 -0.53662,0.3623 -0.20166,0.22559 -0.31445,0.49561 -0.19141,0.46484 -0.19141,1.0083 0,0.66992 0.229,1.12109 0.23243,0.45117 0.67334,0.66992 0.44092,0.21875 0.93653,0.21875 0.43066,0 0.84082,-0.16406 0.41015,-0.16748 0.62207,-0.35547 v -0.9331 z m 2.54981,1.96533 1.92432,-5.01074 h 0.71435 l 2.05078,5.01074 h -0.75537 l -0.58447,-1.51758 h -2.09522 l -0.55029,1.51758 z m 1.4458,-2.05762 h 1.69873 l -0.52295,-1.38769 q -0.23926,-0.63233 -0.35547,-1.03907 -0.0957,0.48194 -0.27002,0.95704 z m 4.52881,2.05762 v -4.41943 h -1.65088 v -0.59131 h 3.97168 v 0.59131 h -1.65772 v 4.41943 z m 3.01465,0 v -5.01074 h 3.62304 v 0.59131 h -2.95996 v 1.53466 h 2.77198 v 0.58789 h -2.77198 v 1.70557 h 3.07617 v 0.59131 z"
     id="text22"
     style="font-size:7px;font-family:Arial, sans-serif;text-anchor:middle;fill:#cccccc"
     aria-label="GATE" /><path
     d="m 179.85276,219.30607 v -5.01074 h 3.62305 v 0.59131 h -2.95997 v 1.53466 h 2.77198 v 0.58789 h -2.77198 v 1.70557 h 3.07618 v 0.59131 z m 4.45361,-2.44043 q 0,-1.24756 0.66992,-1.95166 0.66993,-0.70752 1.7295,-0.70752 0.69384,0 1.25097,0.33154 0.55713,0.33155 0.84766,0.92627 0.29394,0.59131 0.29394,1.34326 0,0.76221 -0.30761,1.36377 -0.30762,0.60157 -0.87159,0.9126 -0.56396,0.30762 -1.21679,0.30762 -0.70752,0 -1.26465,-0.3418 -0.55713,-0.34179 -0.84424,-0.9331 -0.28711,-0.59131 -0.28711,-1.25098 z m 0.6836,0.0102 q 0,0.90577 0.48535,1.42872 0.48877,0.51953 1.22363,0.51953 0.74853,0 1.23047,-0.52637 0.48535,-0.52637 0.48535,-1.49365 0,-0.61182 -0.2085,-1.06641 -0.20507,-0.45801 -0.60498,-0.70752 -0.39648,-0.25293 -0.89209,-0.25293 -0.7041,0 -1.21338,0.48535 -0.50585,0.48194 -0.50585,1.61328 z m 8.53808,0.67334 0.66309,0.16748 q -0.2085,0.8169 -0.75196,1.24756 -0.54004,0.42725 -1.32275,0.42725 -0.81006,0 -1.31934,-0.32813 -0.50586,-0.33154 -0.77246,-0.95703 -0.26318,-0.62549 -0.26318,-1.34326 0,-0.78271 0.29736,-1.36377 0.30078,-0.58447 0.85108,-0.88525 0.55371,-0.3042 1.21679,-0.3042 0.75196,0 1.26465,0.38281 0.5127,0.38281 0.71436,1.07666 l -0.65283,0.15381 q -0.17432,-0.54688 -0.50586,-0.79639 -0.33155,-0.24951 -0.83399,-0.24951 -0.57763,0 -0.96728,0.27686 -0.38623,0.27685 -0.54346,0.74511 -0.15723,0.46485 -0.15723,0.96045 0,0.63916 0.18457,1.11768 0.18799,0.4751 0.58106,0.71094 0.39306,0.23584 0.85107,0.23584 0.55713,0 0.94336,-0.32129 0.38623,-0.32129 0.52295,-0.95362 z"
     id="text23"
     style="font-size:7px;font-family:Arial, sans-serif;text-anchor:middle;fill:#cccccc"
     aria-label="EOC" /><!-- Section divider labels --><path
     d="m 56.442113,212.30607 v -4.29492 h 0.568359 v 4.29492 z m 1.564453,0 v -4.29492 h 0.583008 l 2.255859,3.37207 v -3.37207 h 0.544922 v 4.29492 h -0.583008 l -2.255859,-3.375 v 3.375 z m 4.338867,0 v -4.29492 h 1.620117 q 0.427735,0 0.653321,0.041 0.316406,0.0527 0.530273,0.20215 0.213867,0.14649 0.342773,0.41309 0.131836,0.2666 0.131836,0.58594 0,0.54785 -0.348632,0.92871 -0.348633,0.37793 -1.259766,0.37793 h -1.101563 v 1.7461 z m 0.568359,-2.25293 h 1.110352 q 0.550781,0 0.782227,-0.20508 0.231445,-0.20508 0.231445,-0.57715 0,-0.26953 -0.137695,-0.45996 -0.134766,-0.19336 -0.357422,-0.25488 -0.143555,-0.0381 -0.530274,-0.0381 h -1.098633 z m 6.251954,-2.04199 h 0.568359 v 2.48144 q 0,0.64746 -0.146484,1.02832 -0.146485,0.38086 -0.530274,0.6211 -0.380859,0.2373 -1.001953,0.2373 -0.603516,0 -0.987305,-0.20801 -0.383789,-0.208 -0.547851,-0.60058 -0.164063,-0.39551 -0.164063,-1.07813 v -2.48144 h 0.56836 v 2.47851 q 0,0.55957 0.102539,0.82618 0.105468,0.26367 0.357422,0.40722 0.254882,0.14356 0.621093,0.14356 0.626953,0 0.893555,-0.28418 0.266602,-0.28418 0.266602,-1.09278 z m 2.607421,4.29492 v -3.78809 h -1.415039 v -0.50683 h 3.404297 v 0.50683 h -1.420898 v 3.78809 z m 2.378907,-1.37988 0.536132,-0.0469 q 0.03809,0.32227 0.175782,0.53028 0.140625,0.20507 0.433593,0.33398 0.292969,0.12598 0.65918,0.12598 0.325195,0 0.574219,-0.0967 0.249023,-0.0967 0.369141,-0.26368 0.123046,-0.16992 0.123046,-0.36914 0,-0.20214 -0.117187,-0.35156 -0.117188,-0.15234 -0.386719,-0.25488 -0.172851,-0.0674 -0.764648,-0.20801 -0.591797,-0.14355 -0.829102,-0.26953 -0.307617,-0.16113 -0.459961,-0.39844 -0.149414,-0.24023 -0.149414,-0.53613 0,-0.3252 0.18457,-0.60645 0.184571,-0.28418 0.539063,-0.43066 0.354492,-0.14648 0.788086,-0.14648 0.477539,0 0.84082,0.15527 0.366211,0.15234 0.5625,0.45117 0.196289,0.29883 0.210938,0.67676 l -0.544922,0.041 q -0.04394,-0.40722 -0.298828,-0.61523 -0.251953,-0.20801 -0.747071,-0.20801 -0.515625,0 -0.752929,0.19043 -0.234375,0.1875 -0.234375,0.4541 0,0.23145 0.166992,0.38086 0.164062,0.14942 0.855469,0.30762 0.694336,0.15527 0.952148,0.27246 0.375,0.17285 0.553711,0.43945 0.178711,0.26368 0.178711,0.60938 0,0.34277 -0.196289,0.64746 -0.196289,0.30176 -0.56543,0.47168 -0.366211,0.16699 -0.826172,0.16699 -0.583007,0 -0.978515,-0.16992 -0.392578,-0.16992 -0.618164,-0.50977 -0.222657,-0.34277 -0.234375,-0.77343 z"
     id="text24"
     style="font-size:6px;font-family:Arial, sans-serif;text-anchor:middle;fill:#555555"
     aria-label="INPUTS" /><path
     d="m 154.84006,210.21427 q 0,-1.06933 0.57422,-1.67285 0.57422,-0.60644 1.48242,-0.60644 0.59473,0 1.07227,0.28418 0.47754,0.28418 0.72656,0.79394 0.25195,0.50684 0.25195,1.15137 0,0.65332 -0.26367,1.16894 -0.26367,0.51563 -0.74707,0.78223 -0.4834,0.26367 -1.04297,0.26367 -0.60644,0 -1.08398,-0.29297 -0.47754,-0.29297 -0.72363,-0.7998 -0.2461,-0.50684 -0.2461,-1.07227 z m 0.58594,0.009 q 0,0.77637 0.41602,1.22461 0.41894,0.44531 1.04882,0.44531 0.64161,0 1.05469,-0.45117 0.41602,-0.45117 0.41602,-1.28027 0,-0.52442 -0.17871,-0.91406 -0.17578,-0.39258 -0.51856,-0.60645 -0.33984,-0.2168 -0.76465,-0.2168 -0.60351,0 -1.04004,0.41602 -0.43359,0.41309 -0.43359,1.38281 z m 7.07227,-2.21191 h 0.56836 v 2.48144 q 0,0.64746 -0.14649,1.02832 -0.14648,0.38086 -0.53027,0.6211 -0.38086,0.2373 -1.00196,0.2373 -0.60351,0 -0.9873,-0.20801 -0.38379,-0.208 -0.54785,-0.60058 -0.16406,-0.39551 -0.16406,-1.07813 v -2.48144 h 0.56836 v 2.47851 q 0,0.55957 0.10253,0.82618 0.10547,0.26367 0.35743,0.40722 0.25488,0.14356 0.62109,0.14356 0.62695,0 0.89355,-0.28418 0.26661,-0.28418 0.26661,-1.09278 z m 2.60742,4.29471 v -3.78809 h -1.41504 v -0.50683 h 3.4043 v 0.50683 h -1.4209 v 3.78809 z m 2.57226,0 v -4.29492 h 1.62012 q 0.42774,0 0.65332,0.041 0.31641,0.0527 0.53027,0.20215 0.21387,0.14649 0.34278,0.41309 0.13183,0.2666 0.13183,0.58594 0,0.54785 -0.34863,0.92871 -0.34863,0.37793 -1.25976,0.37793 h -1.10157 v 1.7461 z m 0.56836,-2.25293 h 1.11035 q 0.55079,0 0.78223,-0.20508 0.23145,-0.20508 0.23145,-0.57715 0,-0.26953 -0.1377,-0.45996 -0.13476,-0.19336 -0.35742,-0.25488 -0.14356,-0.0381 -0.53027,-0.0381 h -1.09864 z m 6.25196,-2.04199 h 0.56836 v 2.48144 q 0,0.64746 -0.14649,1.02832 -0.14648,0.38086 -0.53027,0.6211 -0.38086,0.2373 -1.00196,0.2373 -0.60351,0 -0.9873,-0.20801 -0.38379,-0.208 -0.54785,-0.60058 -0.16406,-0.39551 -0.16406,-1.07813 v -2.48144 h 0.56836 v 2.47851 q 0,0.55957 0.10253,0.82618 0.10547,0.26367 0.35743,0.40722 0.25488,0.14356 0.62109,0.14356 0.62695,0 0.89355,-0.28418 0.26661,-0.28418 0.26661,-1.09278 z m 2.60742,4.29492 v -3.78809 h -1.41504 v -0.50683 h 3.4043 v 0.50683 h -1.4209 v 3.78809 z m 2.3789,-1.37988 0.53614,-0.0469 q 0.0381,0.32227 0.17578,0.53028 0.14062,0.20507 0.43359,0.33398 0.29297,0.12598 0.65918,0.12598 0.3252,0 0.57422,-0.0967 0.24902,-0.0967 0.36914,-0.26368 0.12305,-0.16992 0.12305,-0.36914 0,-0.20214 -0.11719,-0.35156 -0.11719,-0.15234 -0.38672,-0.25488 -0.17285,-0.0674 -0.76465,-0.20801 -0.59179,-0.14355 -0.8291,-0.26953 -0.30762,-0.16113 -0.45996,-0.39844 -0.14941,-0.24023 -0.14941,-0.53613 0,-0.3252 0.18457,-0.60645 0.18457,-0.28418 0.53906,-0.43066 0.35449,-0.14648 0.78809,-0.14648 0.47753,0 0.84082,0.15527 0.36621,0.15234 0.5625,0.45117 0.19628,0.29883 0.21093,0.67676 l -0.54492,0.041 q -0.0439,-0.40722 -0.29883,-0.61523 -0.25195,-0.20801 -0.74707,-0.20801 -0.51562,0 -0.75293,0.19043 -0.23437,0.1875 -0.23437,0.4541 0,0.23145 0.16699,0.38086 0.16406,0.14942 0.85547,0.30762 0.69434,0.15527 0.95215,0.27246 0.375,0.17285 0.55371,0.43945 0.17871,0.26368 0.17871,0.60938 0,0.34277 -0.19629,0.64746 -0.19629,0.30176 -0.56543,0.47168 -0.36621,0.16699 -0.82617,0.16699 -0.58301,0 -0.97852,-0.16992 -0.39257,-0.16992 -0.61816,-0.50977 -0.22266,-0.34277 -0.23438,-0.77343 z"
     id="text25"
     style="font-size:6px;font-family:Arial, sans-serif;text-anchor:middle;fill:#555555"
     aria-label="OUTPUTS" /><path
     style="font-size:8px;font-family:Arial, sans-serif;-inkscape-font-specification:'Arial, sans-serif';text-align:center;text-anchor:middle;fill:#888888"
     d="m 147.83603,154.85378 0.71484,-0.0625 q 0.0508,0.42968 0.23438,0.70703 0.1875,0.27343 0.57812,0.44531 0.39063,0.16797 0.87891,0.16797 0.43359,0 0.76562,-0.12891 0.33204,-0.1289 0.49219,-0.35156 0.16406,-0.22656 0.16406,-0.49219 0,-0.26953 -0.15625,-0.46875 -0.15625,-0.20312 -0.51562,-0.33984 -0.23047,-0.0899 -1.01953,-0.27735 -0.78906,-0.1914 -1.10547,-0.35937 -0.41016,-0.21484 -0.61328,-0.53125 -0.19922,-0.32031 -0.19922,-0.71484 0,-0.4336 0.24609,-0.8086 0.2461,-0.3789 0.71875,-0.57422 0.47266,-0.19531 1.05078,-0.19531 0.63672,0 1.1211,0.20703 0.48828,0.20313 0.75,0.60156 0.26172,0.39844 0.28125,0.90235 l -0.72656,0.0547 q -0.0586,-0.54297 -0.39844,-0.82032 -0.33594,-0.27734 -0.9961,-0.27734 -0.6875,0 -1.0039,0.25391 -0.3125,0.25 -0.3125,0.60546 0,0.3086 0.22265,0.50782 0.21875,0.19922 1.14063,0.41015 0.92578,0.20703 1.26953,0.36328 0.5,0.23047 0.73828,0.58594 0.23828,0.35156 0.23828,0.8125 0,0.45703 -0.26172,0.86328 -0.26171,0.40235 -0.7539,0.62891 -0.48828,0.22266 -1.10156,0.22266 -0.77735,0 -1.30469,-0.22657 -0.52344,-0.22656 -0.82422,-0.67968 -0.29688,-0.45704 -0.3125,-1.03125 z m 7.05078,1.83984 v -5.05078 h -1.88672 v -0.67578 h 4.53906 v 0.67578 h -1.89453 v 5.05078 z m 3.44531,0 v -5.72656 h 4.14063 v 0.67578 h -3.38281 v 1.7539 h 3.16796 v 0.67188 h -3.16796 v 1.94922 h 3.51562 v 0.67578 z m 5.32032,0 v -5.72656 h 2.16015 q 0.57031,0 0.8711,0.0547 0.42187,0.0703 0.70703,0.26954 0.28515,0.19531 0.45703,0.55078 0.17578,0.35547 0.17578,0.78125 0,0.73047 -0.46484,1.23828 -0.46485,0.5039 -1.67969,0.5039 h -1.46875 v 2.32813 z m 0.75781,-3.00391 h 1.48047 q 0.73437,0 1.04297,-0.27343 0.30859,-0.27344 0.30859,-0.76954 0,-0.35937 -0.18359,-0.61328 -0.17969,-0.25781 -0.47657,-0.33984 -0.1914,-0.0508 -0.70703,-0.0508 h -1.46484 z m 4.32031,1.16407 0.71484,-0.0625 q 0.0508,0.42968 0.23438,0.70703 0.1875,0.27343 0.57812,0.44531 0.39063,0.16797 0.87891,0.16797 0.43359,0 0.76563,-0.12891 0.33203,-0.1289 0.49218,-0.35156 0.16407,-0.22656 0.16407,-0.49219 0,-0.26953 -0.15625,-0.46875 -0.15625,-0.20312 -0.51563,-0.33984 -0.23047,-0.0899 -1.01953,-0.27735 -0.78906,-0.1914 -1.10547,-0.35937 -0.41016,-0.21484 -0.61328,-0.53125 -0.19922,-0.32031 -0.19922,-0.71484 0,-0.4336 0.24609,-0.8086 0.2461,-0.3789 0.71875,-0.57422 0.47266,-0.19531 1.05079,-0.19531 0.63671,0 1.12109,0.20703 0.48828,0.20313 0.75,0.60156 0.26172,0.39844 0.28125,0.90235 l -0.72656,0.0547 q -0.0586,-0.54297 -0.39844,-0.82032 -0.33594,-0.27734 -0.99609,-0.27734 -0.6875,0 -1.00391,0.25391 -0.3125,0.25 -0.3125,0.60546 0,0.3086 0.22266,0.50782 0.21875,0.19922 1.14062,0.41015 0.92578,0.20703 1.26953,0.36328 0.5,0.23047 0.73828,0.58594 0.23828,0.35156 0.23828,0.8125 0,0.45703 -0.26171,0.86328 -0.26172,0.40235 -0.75391,0.62891 -0.48828,0.22266 -1.10156,0.22266 -0.77735,0 -1.30469,-0.22657 -0.52344,-0.22656 -0.82422,-0.67968 -0.29687,-0.45704 -0.3125,-1.03125 z"
     id="text1"
     aria-label="STEPS" /><!-- Brand name at bottom --></svg>
